<svg width="1280" height="720" xmlns="http://www.w3.org/2000/svg" xmlns:xlink="http://www.w3.org/1999/xlink" overflow="hidden"><defs><filter id="fx0" x="-10%" y="-10%" width="120%" height="120%" filterUnits="userSpaceOnUse" primitiveUnits="userSpaceOnUse"><feComponentTransfer color-interpolation-filters="sRGB"><feFuncR type="discrete" tableValues="0 0"/><feFuncG type="discrete" tableValues="0 0"/><feFuncB type="discrete" tableValues="0 0"/><feFuncA type="linear" slope="0.4" intercept="0"/></feComponentTransfer><feGaussianBlur stdDeviation="2.22222 2.22222"/></filter><clipPath id="clip1"><rect x="0" y="0" width="1280" height="720"/></clipPath><clipPath id="clip2"><rect x="-2" y="-2" width="177" height="177"/></clipPath><clipPath id="clip3"><rect x="0" y="0" width="173" height="173"/></clipPath></defs><g clip-path="url(#clip1)"><rect x="0" y="0" width="1280" height="720" fill="#FFFFFF"/><rect x="695" y="97" width="406" height="202" fill="#F2F2F2"/><text fill="#10401B" font-family="Wingdings,Wingdings_MSFontService,sans-serif" font-weight="400" font-size="19" transform="translate(704.737 122)"><tspan font-family="Bai Jamjuree,Bai Jamjuree_MSFontService,sans-serif" font-size="19" x="18.5333" y="0">นโยบายสภาพภูมิอากาศที่ล่าช้าเกินไป</tspan><tspan font-family="Bai Jamjuree,Bai Jamjuree_MSFontService,sans-serif" font-size="19" x="304.867" y="0"> </tspan><tspan font-size="19" x="0" y="27"></tspan><tspan font-family="Bai Jamjuree,Bai Jamjuree_MSFontService,sans-serif" font-size="19" x="18.5333" y="27">ไม่สามารถบรรลุเป้าหมายสภาพภูมิอากาศ</tspan><tspan font-family="Bai Jamjuree,Bai Jamjuree_MSFontService,sans-serif" font-size="19" x="335.7" y="27"> </tspan><tspan font-family="Bai Jamjuree,Bai Jamjuree_MSFontService,sans-serif" font-size="19" x="0" y="54"></tspan><tspan font-family="Bai Jamjuree,Bai Jamjuree_MSFontService,sans-serif" font-size="19" x="38.6667" y="54">เกิดความเสี่ยงจากภัยพิบัติทางธรรมชาติ</tspan><tspan font-family="Bai Jamjuree,Bai Jamjuree_MSFontService,sans-serif" font-size="19" x="0" y="81"> </tspan><tspan font-family="Bai Jamjuree,Bai Jamjuree_MSFontService,sans-serif" font-size="19" x="62.8333" y="81">และต้นทุนในการปรับตัวสูง</tspan><tspan font-family="Bai Jamjuree,Bai Jamjuree_MSFontService,sans-serif" font-size="19" x="271.5" y="81"></tspan></text><rect x="695" y="51" width="406" height="47" fill="#958934"/><text fill="#FFFFFF" font-family="Bai Jamjuree,Bai Jamjuree_MSFontService,sans-serif" font-weight="700" font-size="24" transform="translate(788.107 83)">Too Little Too Late</text><rect x="695" y="362" width="406" height="183" fill="#F2F2F2"/><text fill="#10401B" font-family="Wingdings,Wingdings_MSFontService,sans-serif" font-weight="400" font-size="19" transform="translate(798.178 387)"><tspan font-family="Bai Jamjuree,Bai Jamjuree_MSFontService,sans-serif" font-size="19" x="19.5333" y="0">นโยบายสภาพภูมิอากาศถูกนํามาใช้</tspan><tspan font-family="Bai Jamjuree,Bai Jamjuree_MSFontService,sans-serif" font-size="19" x="19.5333" y="27">เพียงเล็กน้อย ซึ่งไม่เพียงพอที่จะ</tspan><tspan font-family="Bai Jamjuree,Bai Jamjuree_MSFontService,sans-serif" font-size="19" x="19.5333" y="54">แก้ไขปัญหา </tspan><tspan font-family="Bai Jamjuree,Bai Jamjuree_MSFontService,sans-serif" font-size="19" x="114.533" y="54">climate change</tspan><tspan font-family="Bai Jamjuree,Bai Jamjuree_MSFontService,sans-serif" font-size="19" x="245.533" y="54"> </tspan><tspan font-size="19" x="-93.4667" y="81"></tspan><tspan font-family="Bai Jamjuree,Bai Jamjuree_MSFontService,sans-serif" font-size="19" x="-75.2667" y="81">ไม่สามารถบรรลุเป้าหมายสภาพภูมิอากาศ </tspan><tspan font-family="Bai Jamjuree,Bai Jamjuree_MSFontService,sans-serif" font-size="19" x="-75.2667" y="108">จนนําไปสู่ภัยพิบัติทางธรรมชาติที่รุนแรง</tspan><tspan font-family="Bai Jamjuree,Bai Jamjuree_MSFontService,sans-serif" font-size="19" x="225.233" y="108"> </tspan><tspan font-size="19" x="-93.4667" y="135"></tspan><tspan font-family="Bai Jamjuree,Bai Jamjuree_MSFontService,sans-serif" font-size="19" x="-75.2667" y="135">โลกลดลงร้อยละ </tspan><tspan font-family="Bai Jamjuree,Bai Jamjuree_MSFontService,sans-serif" font-size="19" x="54.4" y="135">25</tspan><tspan font-family="Bai Jamjuree,Bai Jamjuree_MSFontService,sans-serif" font-size="19" x="75.9" y="135"> </tspan><tspan font-family="Bai Jamjuree,Bai Jamjuree_MSFontService,sans-serif" font-size="19" x="80.7333" y="135">ภายในปี </tspan><tspan font-family="Bai Jamjuree,Bai Jamjuree_MSFontService,sans-serif" font-size="19" x="149.233" y="135">2643</tspan><tspan font-family="Bai Jamjuree,Bai Jamjuree_MSFontService,sans-serif" font-size="19" x="192.733" y="135"> </tspan><tspan font-family="Bai Jamjuree,Bai Jamjuree_MSFontService,sans-serif" font-size="19" x="197.567" y="135">(</tspan><tspan font-family="Bai Jamjuree,Bai Jamjuree_MSFontService,sans-serif" font-size="19" x="203.233" y="135">ค</tspan><tspan font-family="Bai Jamjuree,Bai Jamjuree_MSFontService,sans-serif" font-size="19" x="214.9" y="135">.</tspan><tspan font-family="Bai Jamjuree,Bai Jamjuree_MSFontService,sans-serif" font-size="19" x="219.067" y="135">ศ</tspan><tspan font-family="Bai Jamjuree,Bai Jamjuree_MSFontService,sans-serif" font-size="19" x="230.733" y="135">. </tspan><tspan font-family="Bai Jamjuree,Bai Jamjuree_MSFontService,sans-serif" font-size="19" x="239.733" y="135">2100</tspan><tspan font-family="Bai Jamjuree,Bai Jamjuree_MSFontService,sans-serif" font-size="19" x="280.733" y="135">)</tspan><tspan font-family="Bai Jamjuree,Bai Jamjuree_MSFontService,sans-serif" font-size="19" x="291.233" y="135"></tspan></text><rect x="763" y="314" width="338" height="47" fill="#875826"/><text fill="#FFFFFF" font-family="Bai Jamjuree,Bai Jamjuree_MSFontService,sans-serif" font-weight="700" font-size="24" transform="translate(834.83 346)">Hot House World</text><path d="M1.33333-2.65907e-07 1.33344 519.77-1.33323 519.77-1.33333 2.65907e-07ZM4.0001 518.433 0.000104987 526.433-3.9999 518.433Z" fill="#7F7F7F" transform="matrix(1 0 0 -1 226.5 545.934)"/><path d="M250.5 578.167 1123.35 578.167 1123.35 580.833 250.5 580.833ZM1122.01 575.5 1130.01 579.5 1122.01 583.5Z" fill="#7F7F7F"/><text fill="#262626" font-family="Bai Jamjuree,Bai Jamjuree_MSFontService,sans-serif" font-weight="700" font-size="24" transform="translate(605.426 623)">Physical Risks<tspan font-size="24" x="168.833" y="0"></tspan></text><text fill="#262626" font-family="Bai Jamjuree,Bai Jamjuree_MSFontService,sans-serif" font-weight="700" font-size="24" transform="matrix(-1.83697e-16 -1 1 -1.83697e-16 190.63 375)">Transition Risks<tspan font-size="24" x="187" y="3.43513e-14"> </tspan><tspan font-size="19" x="-135" y="-73.4153">การปรับตัวที่ราบรื่น</tspan><tspan font-size="19" x="-96" y="-46.4153">(Orderly)</tspan><tspan font-size="19" x="-17" y="-46.4153"> </tspan><tspan font-size="19" x="88" y="-73.4156">การปรับตัวอย่างกะทันหันและ</tspan><tspan font-size="19" x="95" y="-46.4156">ไม่เป็นระเบียบ </tspan><tspan font-size="19" x="214" y="-46.4156">(Disorderly)</tspan><tspan font-size="19" x="319" y="-46.4156"></tspan></text><text fill="#262626" font-family="Bai Jamjuree,Bai Jamjuree_MSFontService,sans-serif" font-weight="700" font-size="19" transform="translate(351.513 665)">บรรลุเป้าหมายสภาพภูมิอากาศ <tspan font-size="19" x="67.5" y="27">(Target Met)</tspan> <tspan font-size="19" x="413.498" y="0">ไม่บรรลุเป้าหมายสภาพภูมิอากาศ </tspan><tspan font-size="19" x="472.498" y="27">(Target Not Met)</tspan></text><rect x="271" y="362" width="407" height="183" fill="#E2F0D9"/><text fill="#10401B" font-family="Wingdings,Wingdings_MSFontService,sans-serif" font-weight="400" font-size="19" transform="translate(280.964 387)"><tspan font-family="Bai Jamjuree,Bai Jamjuree_MSFontService,sans-serif" font-size="19" x="18.5333" y="0">นโยบายสภาพภูมิอากาศถูกนํามาใช้</tspan><tspan font-family="Bai Jamjuree,Bai Jamjuree_MSFontService,sans-serif" font-size="19" x="18.5333" y="27">ตั้งแต่ช่วงต้นและค่อย ๆ เข้มงวดมากขึ้น </tspan><tspan font-family="Bai Jamjuree,Bai Jamjuree_MSFontService,sans-serif" font-size="19" x="318.867" y="27"></tspan><tspan font-size="19" x="0" y="54"></tspan><tspan font-family="Bai Jamjuree,Bai Jamjuree_MSFontService,sans-serif" font-size="19" x="18.5333" y="54">บรรลุเป้าหมายสภาพภูมิอากาศ ด้วยต้นทุน</tspan><tspan font-family="Bai Jamjuree,Bai Jamjuree_MSFontService,sans-serif" font-size="19" x="18.5333" y="81">ในการปรับตัวที่ค่อยๆลดลงตามระยะเวลา</tspan><tspan font-family="Bai Jamjuree,Bai Jamjuree_MSFontService,sans-serif" font-size="19" x="330.7" y="81"> </tspan><tspan font-size="19" x="0" y="108"></tspan><tspan font-family="Bai Jamjuree,Bai Jamjuree_MSFontService,sans-serif" font-size="19" x="18.5333" y="108">GDP </tspan><tspan font-family="Bai Jamjuree,Bai Jamjuree_MSFontService,sans-serif" font-size="19" x="60.3667" y="108">โลกลดลงร้อยละ </tspan><tspan font-family="Bai Jamjuree,Bai Jamjuree_MSFontService,sans-serif" font-size="19" x="190.033" y="108">4</tspan><tspan font-family="Bai Jamjuree,Bai Jamjuree_MSFontService,sans-serif" font-size="19" x="200.867" y="108"> </tspan><tspan font-family="Bai Jamjuree,Bai Jamjuree_MSFontService,sans-serif" font-size="19" x="205.7" y="108">ภายในปี </tspan><tspan font-family="Bai Jamjuree,Bai Jamjuree_MSFontService,sans-serif" font-size="19" x="274.2" y="108">2643</tspan><tspan font-family="Bai Jamjuree,Bai Jamjuree_MSFontService,sans-serif" font-size="19" x="317.7" y="108"> </tspan><tspan font-family="Bai Jamjuree,Bai Jamjuree_MSFontService,sans-serif" font-size="19" x="18.5333" y="135">(</tspan><tspan font-family="Bai Jamjuree,Bai Jamjuree_MSFontService,sans-serif" font-size="19" x="24.2" y="135">ค</tspan><tspan font-family="Bai Jamjuree,Bai Jamjuree_MSFontService,sans-serif" font-size="19" x="35.8667" y="135">.</tspan><tspan font-family="Bai Jamjuree,Bai Jamjuree_MSFontService,sans-serif" font-size="19" x="40.0333" y="135">ศ</tspan><tspan font-family="Bai Jamjuree,Bai Jamjuree_MSFontService,sans-serif" font-size="19" x="51.7" y="135">. </tspan><tspan font-family="Bai Jamjuree,Bai Jamjuree_MSFontService,sans-serif" font-size="19" x="60.7" y="135">2100</tspan><tspan font-family="Bai Jamjuree,Bai Jamjuree_MSFontService,sans-serif" font-size="19" x="101.7" y="135">)</tspan><tspan font-family="Bai Jamjuree,Bai Jamjuree_MSFontService,sans-serif" font-size="19" x="112.2" y="135"></tspan></text><rect x="271" y="314" width="330" height="47" fill="#10401B"/><text fill="#FFFFFF" font-family="Bai Jamjuree,Bai Jamjuree_MSFontService,sans-serif" font-weight="700" font-size="24" transform="translate(393.505 346)">Orderly</text><rect x="271" y="97" width="407" height="202" fill="#F2F2F2"/><text fill="#10401B" font-family="Wingdings,Wingdings_MSFontService,sans-serif" font-weight="400" font-size="19" transform="translate(280.964 122)"><tspan font-family="Bai Jamjuree,Bai Jamjuree_MSFontService,sans-serif" font-size="19" x="18.5333" y="0">นโยบายสภาพภูมิอากาศที่ช้าหรือมีทิศทาง</tspan><tspan font-family="Bai Jamjuree,Bai Jamjuree_MSFontService,sans-serif" font-size="19" x="18.5333" y="27">ที่แตกต่างกัน และกลับมาเร่งขึ้นอย่างรุนแรง</tspan><tspan font-family="Bai Jamjuree,Bai Jamjuree_MSFontService,sans-serif" font-size="19" x="18.5333" y="54">ในช่วงหลัง</tspan><tspan font-family="Bai Jamjuree,Bai Jamjuree_MSFontService,sans-serif" font-size="19" x="99.5333" y="54"> </tspan><tspan font-size="19" x="0" y="81"></tspan><tspan font-family="Bai Jamjuree,Bai Jamjuree_MSFontService,sans-serif" font-size="19" x="18.5333" y="81">บรรลุเป้าหมายสภาพภูมิอากาศ </tspan><tspan font-family="Bai Jamjuree,Bai Jamjuree_MSFontService,sans-serif" font-size="19" x="18.5333" y="108">แต่ต้นทุนในการปรับตัวสูง </tspan><tspan font-family="Bai Jamjuree,Bai Jamjuree_MSFontService,sans-serif" font-size="19" x="218.7" y="108"></tspan><tspan font-size="19" x="0" y="135"></tspan><tspan font-family="Bai Jamjuree,Bai Jamjuree_MSFontService,sans-serif" font-size="19" x="18.5333" y="135">GDP </tspan><tspan font-family="Bai Jamjuree,Bai Jamjuree_MSFontService,sans-serif" font-size="19" x="60.3667" y="135">โลกลดลงร้อยละ </tspan><tspan font-family="Bai Jamjuree,Bai Jamjuree_MSFontService,sans-serif" font-size="19" x="190.033" y="135">9</tspan><tspan font-family="Bai Jamjuree,Bai Jamjuree_MSFontService,sans-serif" font-size="19" x="201.367" y="135">-</tspan><tspan font-family="Bai Jamjuree,Bai Jamjuree_MSFontService,sans-serif" font-size="19" x="208.367" y="135">10</tspan><tspan font-family="Bai Jamjuree,Bai Jamjuree_MSFontService,sans-serif" font-size="19" x="227.033" y="135"> </tspan><tspan font-family="Bai Jamjuree,Bai Jamjuree_MSFontService,sans-serif" font-size="19" x="18.5333" y="161">ภายในปี </tspan><tspan font-family="Bai Jamjuree,Bai Jamjuree_MSFontService,sans-serif" font-size="19" x="87.0333" y="161">2643</tspan><tspan font-family="Bai Jamjuree,Bai Jamjuree_MSFontService,sans-serif" font-size="19" x="130.533" y="161"> </tspan><tspan font-family="Bai Jamjuree,Bai Jamjuree_MSFontService,sans-serif" font-size="19" x="135.367" y="161">(</tspan><tspan font-family="Bai Jamjuree,Bai Jamjuree_MSFontService,sans-serif" font-size="19" x="141.033" y="161">ค</tspan><tspan font-family="Bai Jamjuree,Bai Jamjuree_MSFontService,sans-serif" font-size="19" x="152.7" y="161">.</tspan><tspan font-family="Bai Jamjuree,Bai Jamjuree_MSFontService,sans-serif" font-size="19" x="156.867" y="161">ศ</tspan><tspan font-family="Bai Jamjuree,Bai Jamjuree_MSFontService,sans-serif" font-size="19" x="168.533" y="161">. </tspan><tspan font-family="Bai Jamjuree,Bai Jamjuree_MSFontService,sans-serif" font-size="19" x="177.533" y="161">2100</tspan><tspan font-family="Bai Jamjuree,Bai Jamjuree_MSFontService,sans-serif" font-size="19" x="218.533" y="161">)</tspan><tspan font-family="Bai Jamjuree,Bai Jamjuree_MSFontService,sans-serif" font-size="19" x="229.033" y="161"></tspan></text><rect x="271" y="51" width="407" height="47" fill="#9FC55A"/><text fill="#FFFFFF" font-family="Bai Jamjuree,Bai Jamjuree_MSFontService,sans-serif" font-weight="700" font-size="24" transform="translate(414.872 83)">Disorderly</text><path d="M576 314.938C576.034 254.211 625.497 205 686.5 205L686.5 315Z" fill="#9FC55A" fill-rule="evenodd"/><path d="M0.00145013 109.912C0.324792 49.115 49.7018-0.000116139 110.5-0.000116139L110.5 110.5Z" fill="#958934" fill-rule="evenodd" transform="matrix(-1 0 0 1 797 205)"/><path d="M0 109.938C0.0343146 49.211 49.4968 3.2888e-06 110.5 3.2888e-06L110.5 110Z" fill="#10401B" fill-rule="evenodd" transform="matrix(1 0 0 -1 576 424)"/><path d="M796.998 314.588C796.674 375.109 747.297 424 686.5 424L686.5 314Z" fill="#875826" fill-rule="evenodd"/><g clip-path="url(#clip2)" filter="url(#fx0)" transform="translate(600 229)"><g clip-path="url(#clip3)"><path d="M8.46997 86.5C8.46997 43.4052 43.4052 8.47 86.5 8.47 129.595 8.47 164.53 43.4052 164.53 86.5 164.53 129.595 129.595 164.53 86.5 164.53 43.4052 164.53 8.46997 129.595 8.46997 86.5Z" fill="#FFFFFF" fill-rule="evenodd"/></g></g><path d="M610 315.5C610 273.25 644.25 239 686.5 239 728.75 239 763 273.25 763 315.5 763 357.75 728.75 392 686.5 392 644.25 392 610 357.75 610 315.5Z" fill="#FFFFFF" fill-rule="evenodd"/><text fill="#262626" font-family="Bai Jamjuree,Bai Jamjuree_MSFontService,sans-serif" font-weight="700" font-size="27" transform="translate(629.9 325)">Scenario</text></g></svg>